<?xml version="1.0" encoding="utf-8"?>
<!-- Generator: Adobe Illustrator 19.1.0, SVG Export Plug-In . SVG Version: 6.00 Build 0)  -->
<svg version="1.1" id="Layer_1" xmlns="http://www.w3.org/2000/svg" xmlns:xlink="http://www.w3.org/1999/xlink" x="0px" y="0px"
	 width="200px" height="200px" viewBox="0 0 200 200" enable-background="new 0 0 200 200" xml:space="preserve">
<g>
	<path fill="#FFFFFF" stroke="#000000" stroke-width="0.7" stroke-miterlimit="10" d="M100.95,15.68
		c-48.19,0.84-86.58,40.59-85.74,88.78c0.84,48.19,40.59,86.58,88.78,85.74c48.19-0.84,86.58-40.59,85.74-88.78
		C188.89,53.22,149.14,14.84,100.95,15.68z M127.66,81.66l-16.36,0.28l0.79,45.07c0.19,10.71-8.09,19.54-18.8,19.72
		c-10.71,0.19-19.42-8.34-19.6-19.06c-0.19-10.71,7.54-19.53,18.26-19.71c3.54-0.06,3.46,0.96,8.95,2.51l-0.78-44.71l27.27-0.47
		L127.66,81.66z"/>
	<path opacity="0.6" fill="#AC287D" d="M95.72,10.48C47.54,11.31,9.17,51.06,10.01,99.25c0.84,48.19,40.58,86.58,88.76,85.74
		c48.18-0.84,86.56-40.58,85.71-88.77C183.64,48.03,143.9,9.64,95.72,10.48z M122.43,76.46l-16.36,0.28l0.79,45.07
		c0.19,10.71-8.08,19.54-18.79,19.72c-10.71,0.19-19.41-8.34-19.6-19.06c-0.19-10.71,7.54-19.53,18.25-19.71
		c3.54-0.06,3.46,0.96,8.94,2.51l-0.78-44.71l27.26-0.47L122.43,76.46z"/>
</g>
</svg>
