<svg xmlns="http://www.w3.org/2000/svg" width="200" height="200" viewBox="0 0 200 200"><title>photo</title><circle cx="73.95" cy="60.05" r="16.9" fill="#fff" stroke="#000" stroke-miterlimit="10" stroke-width="0.7"/><path d="M48.25,145.37l29.66-36.51a2.11,2.11,0,0,1,3.11.07l19.45,18.71a2.11,2.11,0,0,0,3.17-.22l24.5-33.9a2.11,2.11,0,0,1,3.55.21L162,145.78c0.8,1.41-.21,2.05-1.84,2L49.9,147.68C48.13,147.68,47.14,146.76,48.25,145.37Z" fill="#fff" stroke="#000" stroke-miterlimit="10" stroke-width="0.7"/><path d="M178.75,43.12A16.9,16.9,0,0,0,161.87,26.2L41.11,26A16.9,16.9,0,0,0,24.19,42.93L24,163.7a16.9,16.9,0,0,0,16.88,16.92l120.77,0.15a16.9,16.9,0,0,0,16.92-16.88ZM74,43.15A16.9,16.9,0,1,1,57.05,60,16.9,16.9,0,0,1,74,43.15ZM49.23,146.4l29.66-36.51A2.11,2.11,0,0,1,82,110l19.45,18.71a2.11,2.11,0,0,0,3.17-.22l24.5-33.9a2.11,2.11,0,0,1,3.55.21L163,146.81c0.8,1.41-.21,2.05-1.84,2l-110.25-.14C49.11,148.71,48.12,147.78,49.23,146.4Z" fill="#fff" stroke="#000" stroke-miterlimit="10" stroke-width="0.7"/><path d="M173.77,35.43a16.9,16.9,0,0,0-16.88-16.92L36.13,18.36A16.9,16.9,0,0,0,19.21,35.24L19.06,156a16.9,16.9,0,0,0,16.88,16.92l120.77,0.15a16.9,16.9,0,0,0,16.92-16.88ZM69,35.47A16.9,16.9,0,1,1,52.07,52.35,16.9,16.9,0,0,1,69,35.47ZM46.25,140.72l29.66-36.51a2.11,2.11,0,0,1,3.11.07L98.47,123a2.11,2.11,0,0,0,3.17-.22l24.5-33.9a2.11,2.11,0,0,1,3.55.21L160,141.13c0.8,1.41-.21,2.05-1.84,2L47.9,143C46.13,143,45.14,142.1,46.25,140.72Z" fill="#129fdd" opacity="0.6" style="isolation:isolate"/><path d="M44.78,148.75l29.66-36.51a2.11,2.11,0,0,1,3.11.07L97,131a2.11,2.11,0,0,0,3.17-.22l24.5-33.9a2.11,2.11,0,0,1,3.55.21l30.29,52.05c0.8,1.41-.21,2.05-1.84,2L46.42,151C44.66,151.05,43.68,150.13,44.78,148.75Z" fill="#065b28" opacity="0.6" style="isolation:isolate"/><circle cx="66.85" cy="57.35" r="16.9" fill="#ffbc00" opacity="0.6" style="isolation:isolate"/></svg>