<?xml version="1.0" encoding="utf-8"?>
<!-- Generator: Adobe Illustrator 19.1.0, SVG Export Plug-In . SVG Version: 6.00 Build 0)  -->
<svg version="1.1" id="Layer_1" xmlns="http://www.w3.org/2000/svg" xmlns:xlink="http://www.w3.org/1999/xlink" x="0px" y="0px"
	 width="200px" height="200px" viewBox="0 0 200 200" enable-background="new 0 0 200 200" xml:space="preserve">
<circle fill="#FFFFFF" stroke="#000000" stroke-width="0.7" stroke-miterlimit="10" cx="73.95" cy="60.05" r="16.9"/>
<path fill="#FFFFFF" stroke="#000000" stroke-width="0.7" stroke-miterlimit="10" d="M48.25,145.37l29.66-36.51
	c0.77-0.97,2.21-0.78,3.11,0.07l19.45,18.71c0.93,0.88,2.42,0.82,3.17-0.22l24.5-33.9c0.9-1.25,2.79-1.13,3.55,0.21l30.29,52.05
	c0.8,1.41-0.21,2.05-1.84,2.04L49.9,147.68C48.13,147.68,47.14,146.76,48.25,145.37z"/>
<g>
	<path fill="#FFFFFF" stroke="#000000" stroke-width="0.7" stroke-miterlimit="10" d="M178.75,43.12
		c0.01-9.33-7.54-16.91-16.88-16.92L41.11,26.05c-9.33-0.01-16.91,7.54-16.92,16.88l-0.15,120.77c-0.01,9.33,7.54,16.91,16.88,16.92
		l120.77,0.15c9.33,0.01,16.91-7.54,16.92-16.88L178.75,43.12z M73.97,43.15c9.33,0.01,16.89,7.59,16.88,16.92
		c-0.01,9.33-7.59,16.89-16.92,16.88s-16.89-7.59-16.88-16.92C57.06,50.7,64.64,43.14,73.97,43.15z M49.23,146.4l29.66-36.51
		c0.77-0.97,2.21-0.78,3.11,0.07l19.45,18.71c0.93,0.88,2.42,0.82,3.17-0.22l24.5-33.9c0.9-1.25,2.79-1.13,3.55,0.21l30.29,52.05
		c0.8,1.41-0.21,2.05-1.84,2.04l-110.25-0.14C49.11,148.71,48.12,147.78,49.23,146.4z"/>
	<path opacity="0.6" fill="#129FDD" d="M173.77,35.43c0.01-9.33-7.54-16.91-16.88-16.92L36.13,18.36
		c-9.33-0.01-16.91,7.54-16.92,16.88l-0.15,120.77c-0.01,9.33,7.54,16.91,16.88,16.92l120.77,0.15c9.33,0.01,16.91-7.54,16.92-16.88
		L173.77,35.43z M68.99,35.47c9.33,0.01,16.89,7.59,16.88,16.92c-0.01,9.33-7.59,16.89-16.92,16.88s-16.89-7.59-16.88-16.92
		C52.08,43.01,59.66,35.46,68.99,35.47z M46.25,140.72l29.66-36.51c0.77-0.97,2.21-0.78,3.11,0.07l19.45,18.71
		c0.93,0.88,2.42,0.82,3.17-0.22l24.5-33.9c0.9-1.25,2.79-1.13,3.55,0.21l30.29,52.05c0.8,1.41-0.21,2.05-1.84,2.04L47.9,143.03
		C46.13,143.02,45.14,142.1,46.25,140.72z"/>
	<path opacity="0.6" fill="#065B28" d="M44.78,148.75l29.66-36.51c0.77-0.97,2.21-0.78,3.11,0.07L97,131.01
		c0.93,0.88,2.42,0.82,3.17-0.22l24.5-33.9c0.9-1.25,2.79-1.13,3.55,0.21l30.29,52.05c0.8,1.41-0.21,2.05-1.84,2.04l-110.25-0.14
		C44.66,151.05,43.68,150.13,44.78,148.75z"/>
	<circle opacity="0.6" fill="#FFBC00" cx="66.85" cy="57.35" r="16.9"/>
</g>
</svg>
