<svg xmlns="http://www.w3.org/2000/svg" width="356" height="193" viewBox="0 0 356 193"><title>pp_front</title><polygon points="24.33 28.95 104.77 56.7 112.29 157.83 220.26 54.4 337.74 71.05 111.76 160.71 24.33 28.95" fill="#fff"/><path d="M25.56,29.91l78.73,27.16,7.42,99.74,0.16,2.12,1.53-1.47,107-102.53L335.8,71.28,111.95,160.1,25.56,29.91M23.09,28l88.47,133.33,228.11-90.5-119.58-17L112.71,156.73l-7.47-100.4L23.09,28h0Z"/><polygon points="110.33 148.82 103.74 58.56 155.91 95.47 219.76 56.64 129.79 143.45 111.92 160.3 110.33 148.82" fill="#fff"/><path d="M216.17,59.41l-86.73,83.68-17.16,16.18-1.46-10.49-6.51-89.2,51,36.11,0.54,0.38,0.56-.34,59.73-36.32m7.18-5.54-67.42,41L103.17,57.54l6.67,91.35,1.73,12.44,18.57-17.51,93.21-90h0Z"/><polygon points="250.68 103.87 235.62 117.98 126.15 156.28 250.68 103.87" fill="#fff"/><path d="M248.3,105.42l-12.95,12.13-94.09,32.92,107-45.05m4.76-3.09L111,162.1l124.84-43.68,17.18-16.09h0Z"/><line x1="156.15" y1="96.99" x2="111.56" y2="161.33" fill="none" stroke="#000" stroke-miterlimit="10"/><polygon points="334.75 73.29 215.16 56.33 107.78 159.19 100.32 58.8 18.17 30.46 106.64 163.79 334.75 73.29" fill="#ffc715" opacity="0.6"/><polygon points="218.15 51.41 131.09 132.47 113.75 148.25 112.13 137.04 105.9 54.71 155.18 88.36 218.15 51.41" fill="#ffc715" opacity="0.7"/><polygon points="113.11 164.42 252.63 108.22 235.62 123.66 113.11 164.42" fill="#ffc715" opacity="0.7"/></svg>