<?xml version="1.0" encoding="utf-8"?>
<!-- Generator: Adobe Illustrator 19.1.0, SVG Export Plug-In . SVG Version: 6.00 Build 0)  -->
<svg version="1.1" id="Layer_1" xmlns="http://www.w3.org/2000/svg" xmlns:xlink="http://www.w3.org/1999/xlink" x="0px" y="0px"
	 width="356px" height="193px" viewBox="0 0 356 193" enable-background="new 0 0 356 193" xml:space="preserve">
<g>
	<polygon fill="#FFFFFF" points="24.33,28.95 104.77,56.7 112.29,157.83 220.26,54.4 337.74,71.05 111.76,160.71 	"/>
	<path d="M25.56,29.91l78.73,27.16l7.42,99.74l0.16,2.12l1.53-1.47L220.43,54.93L335.8,71.28L111.95,160.1L25.56,29.91 M23.09,28
		l88.47,133.33l228.11-90.5L220.09,53.87L112.71,156.73l-7.47-100.4L23.09,28L23.09,28z"/>
</g>
<g>
	<polygon fill="#FFFFFF" points="110.33,148.82 103.74,58.56 155.91,95.47 219.76,56.64 129.79,143.45 111.92,160.3 	"/>
	<path d="M216.17,59.41l-86.73,83.68l-17.16,16.18l-1.46-10.49l-6.51-89.2l51.03,36.11l0.54,0.38l0.56-0.34L216.17,59.41
		 M223.35,53.87l-67.42,41.01l-52.76-37.34l6.67,91.35l1.73,12.44l18.57-17.51L223.35,53.87L223.35,53.87z"/>
</g>
<g>
	<polygon fill="#FFFFFF" points="250.68,103.87 235.62,117.98 126.15,156.28 	"/>
	<path d="M248.3,105.42l-12.95,12.13l-94.09,32.92L248.3,105.42 M253.06,102.33L111.04,162.1l124.84-43.68L253.06,102.33
		L253.06,102.33z"/>
</g>
<line fill="none" stroke="#000000" stroke-miterlimit="10" x1="156.15" y1="96.99" x2="111.56" y2="161.33"/>
<g opacity="0.5">
	<polygon fill="#FFC715" points="334.75,73.29 215.16,56.33 107.78,159.19 100.32,58.8 18.17,30.46 106.64,163.79 	"/>
</g>
<g opacity="0.5">
	<polygon fill="#FFC715" points="218.15,51.41 131.09,132.47 113.75,148.25 112.13,137.04 105.9,54.71 155.18,88.36 	"/>
</g>
<g opacity="0.5">
	<polygon fill="#FFC715" points="113.11,164.42 252.63,108.22 235.62,123.66 	"/>
</g>
</svg>
