<?xml version="1.0" encoding="utf-8"?>
<!-- Generator: Adobe Illustrator 19.1.0, SVG Export Plug-In . SVG Version: 6.00 Build 0)  -->
<svg version="1.1" id="Layer_1" xmlns="http://www.w3.org/2000/svg" xmlns:xlink="http://www.w3.org/1999/xlink" x="0px" y="0px"
	 width="271px" height="278.13px" viewBox="0 0 271 278.13" enable-background="new 0 0 271 278.13" xml:space="preserve">
<g>
	<g>
		<g>
			<path fill="#FFFFFF" d="M26.05,171.83L139.18,19.68l-57.3,240.13L26.05,171.83z M139.85,19.33L241.32,182.2l-58.98,74.71
				L139.85,19.33z"/>
			<path d="M140.8,21.8l99.9,160.37l-58.08,73.57L140.8,21.8 M138.13,21.93L81.67,258.54l-55.02-86.69L138.13,21.93 M139.7,18.14
				L25.44,171.81l56.65,89.26l57.43-240.71l42.51,237.74l59.89-75.86L139.7,18.14L139.7,18.14z"/>
		</g>
		<g>
			<polygon fill="#FFFFFF" points="138.26,21.61 139.5,20.73 140.74,21.77 182.6,256.67 135.39,233.6 81.84,259.54 			"/>
			<path d="M139.47,21.36l0.81,0.68l41.65,233.75l-46.11-22.53l-0.44-0.21l-0.44,0.21l-52.38,25.37l56.14-236.73L139.47,21.36
				 M139.52,20.1l-1.7,1.2L81.11,260.45l54.27-26.29l47.88,23.39L141.2,21.51L139.52,20.1L139.52,20.1z"/>
		</g>
		<line fill="none" stroke="#000000" stroke-miterlimit="10" x1="139.52" y1="20.1" x2="135.36" y2="233.18"/>
	</g>
	<g opacity="0.6">
		<polygon fill="#FFC715" points="23.8,165.99 80.46,255.25 137.89,14.54 180.4,252.28 240.29,176.42 138.06,12.32 		"/>
	</g>
	<g opacity="0.7">
		<polygon fill="#FFC715" points="132.46,238.01 81.47,263.73 134.49,29.19 136.08,28.01 137.67,29.39 177.5,261.02 		"/>
	</g>
</g>
</svg>
