<svg xmlns="http://www.w3.org/2000/svg" width="337.64" height="199.63" viewBox="0 0 337.64 199.63"><title>cloud</title><path d="M276.22,78.7A68.82,68.82,0,0,0,254,82.4,89.76,89.76,0,0,0,79.7,113c0,2.37.12,4.7,0.3,7a50,50,0,1,0-17.27,97H276.22A69.13,69.13,0,0,0,276.22,78.7Z" transform="translate(-7.85 -17.68)" fill="#fff" stroke="#000" stroke-miterlimit="10" stroke-width="0.7"/><path d="M74.9,118.09c15,6.6,19.8,17.56,19.8,24.23" transform="translate(-7.85 -17.68)" fill="#fff" stroke="#000" stroke-miterlimit="10" stroke-width="0.7"/><path d="M260.89,80.65c-25.72,4.65-44,28.6-51.44,44.17" transform="translate(-7.85 -17.68)" fill="#fff" stroke="#000" stroke-miterlimit="10" stroke-width="0.7"/><path d="M271.22,73.49A68.82,68.82,0,0,0,249,77.19,89.76,89.76,0,0,0,74.7,107.75c0,2.37.12,4.7,0.3,7a50,50,0,1,0-17.27,97H271.22A69.13,69.13,0,0,0,271.22,73.49Z" transform="translate(-7.85 -17.68)" fill="#a0eae4" opacity="0.6" style="isolation:isolate"/></svg>