<svg xmlns="http://www.w3.org/2000/svg" width="200" height="200" viewBox="0 0 200 200"><title>movie</title><path d="M172.94,21.08l0,9.59a4.79,4.79,0,0,1-4.81,4.78l-9.59,0a4.79,4.79,0,0,1-4.78-4.81l0-9.59A4.79,4.79,0,0,0,149,16.22L62.66,16a4.79,4.79,0,0,0-4.81,4.78l0,9.59A4.79,4.79,0,0,1,53,35.15l-9.59,0a4.79,4.79,0,0,1-4.78-4.81l0-9.59a4.79,4.79,0,0,0-4.78-4.81h-4.8a9.6,9.6,0,0,0-9.62,9.57L19.08,178.94a9.6,9.6,0,0,0,9.57,9.62h4.8a4.79,4.79,0,0,0,4.81-4.78l0-9.59a4.79,4.79,0,0,1,4.81-4.78l9.59,0a4.79,4.79,0,0,1,4.78,4.81l0,9.59a4.79,4.79,0,0,0,4.78,4.81l86.32,0.22a4.79,4.79,0,0,0,4.81-4.78l0-9.59a4.79,4.79,0,0,1,4.81-4.78l9.59,0a4.79,4.79,0,0,1,4.78,4.81l0,9.59a4.79,4.79,0,0,0,4.78,4.81h4.8a9.6,9.6,0,0,0,9.62-9.57l0.39-153.46a9.6,9.6,0,0,0-9.57-9.62h-4.8A4.79,4.79,0,0,0,172.94,21.08ZM52.72,150.26l-9.59,0a4.79,4.79,0,0,1-4.78-4.81l0-9.59a4.79,4.79,0,0,1,4.81-4.78l9.59,0a4.79,4.79,0,0,1,4.78,4.81l0,9.59A4.79,4.79,0,0,1,52.72,150.26Zm0.09-38.37-9.59,0a4.79,4.79,0,0,1-4.78-4.81l0-9.59a4.79,4.79,0,0,1,4.81-4.78l9.59,0a4.79,4.79,0,0,1,4.78,4.81l0,9.59A4.79,4.79,0,0,1,52.81,111.89Zm0.1-38.36-9.59,0a4.79,4.79,0,0,1-4.78-4.81l0-9.59a4.79,4.79,0,0,1,4.81-4.78l9.59,0a4.79,4.79,0,0,1,4.78,4.81l0,9.59A4.8,4.8,0,0,1,52.91,73.53Zm114.9,77-9.59,0a4.79,4.79,0,0,1-4.78-4.81l0-9.59a4.79,4.79,0,0,1,4.81-4.78l9.59,0a4.79,4.79,0,0,1,4.78,4.81l0,9.59A4.79,4.79,0,0,1,167.81,150.55Zm0.1-38.36-9.59,0a4.79,4.79,0,0,1-4.78-4.81l0-9.59A4.79,4.79,0,0,1,158.37,93L168,93a4.79,4.79,0,0,1,4.78,4.81l0,9.59A4.81,4.81,0,0,1,167.91,112.19ZM168,73.82l-9.59,0A4.79,4.79,0,0,1,153.64,69l0-9.59a4.79,4.79,0,0,1,4.81-4.78l9.59,0a4.79,4.79,0,0,1,4.78,4.81l0,9.59A4.79,4.79,0,0,1,168,73.82Z" fill="#fff" stroke="#000" stroke-miterlimit="10" stroke-width="0.7"/><path d="M165,17.61l0,9.59A4.79,4.79,0,0,1,160.13,32l-9.59,0a4.79,4.79,0,0,1-4.78-4.81l0-9.59A4.79,4.79,0,0,0,141,12.75l-86.32-.22a4.79,4.79,0,0,0-4.81,4.78l0,9.59A4.79,4.79,0,0,1,45,31.68l-9.59,0a4.79,4.79,0,0,1-4.78-4.81l0-9.59a4.79,4.79,0,0,0-4.78-4.81h-4.8A9.6,9.6,0,0,0,11.49,22L11.1,175.47a9.6,9.6,0,0,0,9.57,9.62h4.8a4.79,4.79,0,0,0,4.81-4.78l0-9.59a4.79,4.79,0,0,1,4.81-4.78l9.59,0a4.79,4.79,0,0,1,4.78,4.81l0,9.59a4.79,4.79,0,0,0,4.78,4.81l86.32,0.22a4.79,4.79,0,0,0,4.81-4.78l0-9.59a4.79,4.79,0,0,1,4.81-4.78l9.59,0a4.79,4.79,0,0,1,4.78,4.81l0,9.59a4.79,4.79,0,0,0,4.78,4.81h4.8a9.6,9.6,0,0,0,9.62-9.57l0.39-153.46a9.6,9.6,0,0,0-9.57-9.62h-4.8A4.79,4.79,0,0,0,165,17.61ZM44.74,146.79l-9.59,0A4.79,4.79,0,0,1,30.37,142l0-9.59a4.79,4.79,0,0,1,4.81-4.78l9.59,0a4.79,4.79,0,0,1,4.78,4.81l0,9.58A4.81,4.81,0,0,1,44.74,146.79Zm0.1-38.37-9.59,0a4.79,4.79,0,0,1-4.78-4.81l0-9.59a4.79,4.79,0,0,1,4.81-4.78l9.59,0A4.79,4.79,0,0,1,49.67,94l0,9.59A4.8,4.8,0,0,1,44.84,108.42Zm0.09-38.37-9.59,0a4.79,4.79,0,0,1-4.78-4.81l0-9.59a4.79,4.79,0,0,1,4.81-4.78l9.59,0a4.79,4.79,0,0,1,4.78,4.81l0,9.59A4.79,4.79,0,0,1,44.93,70.05Zm114.91,77-9.59,0a4.79,4.79,0,0,1-4.78-4.81l0-9.59a4.79,4.79,0,0,1,4.81-4.78l9.59,0a4.79,4.79,0,0,1,4.78,4.81l0,9.59A4.81,4.81,0,0,1,159.84,147.08Zm0.09-38.37-9.59,0a4.79,4.79,0,0,1-4.78-4.81l0-9.59a4.79,4.79,0,0,1,4.81-4.78l9.59,0a4.79,4.79,0,0,1,4.78,4.81l0,9.59A4.79,4.79,0,0,1,159.93,108.71ZM160,70.35l-9.59,0a4.79,4.79,0,0,1-4.78-4.81l0-9.59a4.79,4.79,0,0,1,4.81-4.78l9.59,0A4.79,4.79,0,0,1,164.86,56l0,9.59A4.81,4.81,0,0,1,160,70.35Z" fill="#11a391" opacity="0.6" style="isolation:isolate"/></svg>