<?xml version="1.0" encoding="utf-8"?>
<!-- Generator: Adobe Illustrator 19.1.0, SVG Export Plug-In . SVG Version: 6.00 Build 0)  -->
<svg version="1.1" id="Layer_1" xmlns="http://www.w3.org/2000/svg" xmlns:xlink="http://www.w3.org/1999/xlink" x="0px" y="0px"
	 width="200px" height="200px" viewBox="0 0 200 200" enable-background="new 0 0 200 200" xml:space="preserve">
<g>
	<path fill="#FFFFFF" stroke="#000000" stroke-width="0.7" stroke-miterlimit="10" d="M172.94,21.08l-0.02,9.59
		c-0.01,2.65-2.16,4.79-4.81,4.78l-9.59-0.02c-2.65-0.01-4.79-2.16-4.78-4.81l0.02-9.59c0.01-2.65-2.13-4.8-4.78-4.81l-86.32-0.22
		c-2.65-0.01-4.8,2.13-4.81,4.78l-0.02,9.59c-0.01,2.65-2.16,4.79-4.81,4.78l-9.59-0.02c-2.65-0.01-4.79-2.16-4.78-4.81l0.02-9.59
		c0.01-2.65-2.13-4.8-4.78-4.81l-4.8-0.01c-5.3-0.01-9.6,4.27-9.62,9.57l-0.39,153.46c-0.01,5.3,4.27,9.6,9.57,9.62l4.8,0.01
		c2.65,0.01,4.8-2.13,4.81-4.78l0.02-9.59c0.01-2.65,2.16-4.79,4.81-4.78l9.59,0.02c2.65,0.01,4.79,2.16,4.78,4.81l-0.02,9.59
		c-0.01,2.65,2.13,4.8,4.78,4.81l86.32,0.22c2.65,0.01,4.8-2.13,4.81-4.78l0.02-9.59c0.01-2.65,2.16-4.79,4.81-4.78l9.59,0.02
		c2.65,0.01,4.79,2.16,4.78,4.81l-0.02,9.59c-0.01,2.65,2.13,4.8,4.78,4.81l4.8,0.01c5.3,0.01,9.6-4.27,9.62-9.57l0.39-153.46
		c0.01-5.3-4.27-9.6-9.57-9.62l-4.8-0.01C175.1,16.29,172.95,18.43,172.94,21.08z M52.72,150.26l-9.59-0.02
		c-2.65-0.01-4.79-2.16-4.78-4.81l0.02-9.59c0.01-2.65,2.16-4.79,4.81-4.78l9.59,0.02c2.65,0.01,4.79,2.16,4.78,4.81l-0.02,9.59
		C57.52,148.13,55.37,150.27,52.72,150.26z M52.81,111.89l-9.59-0.02c-2.65-0.01-4.79-2.16-4.78-4.81l0.02-9.59
		c0.01-2.65,2.16-4.79,4.81-4.78l9.59,0.02c2.65,0.01,4.79,2.16,4.78,4.81l-0.02,9.59C57.62,109.76,55.46,111.9,52.81,111.89z
		 M52.91,73.53l-9.59-0.02c-2.65-0.01-4.79-2.16-4.78-4.81l0.02-9.59c0.01-2.65,2.16-4.79,4.81-4.78l9.59,0.02
		c2.65,0.01,4.79,2.16,4.78,4.81l-0.02,9.59C57.71,71.39,55.56,73.54,52.91,73.53z M167.81,150.55l-9.59-0.02
		c-2.65-0.01-4.79-2.16-4.78-4.81l0.02-9.59c0.01-2.65,2.16-4.79,4.81-4.78l9.59,0.02c2.65,0.01,4.79,2.16,4.78,4.81l-0.02,9.59
		C172.62,148.42,170.46,150.56,167.81,150.55z M167.91,112.19l-9.59-0.02c-2.65-0.01-4.79-2.16-4.78-4.81l0.02-9.59
		c0.01-2.65,2.16-4.79,4.81-4.78l9.59,0.02c2.65,0.01,4.79,2.16,4.78,4.81l-0.02,9.59C172.71,110.05,170.56,112.19,167.91,112.19z
		 M168.01,73.82l-9.59-0.02c-2.65-0.01-4.79-2.16-4.78-4.81l0.02-9.59c0.01-2.65,2.16-4.79,4.81-4.78l9.59,0.02
		c2.65,0.01,4.79,2.16,4.78,4.81l-0.02,9.59C172.81,71.69,170.66,73.83,168.01,73.82z"/>
	<path opacity="0.6" fill="#11A391" d="M164.96,17.61l-0.02,9.59c-0.01,2.65-2.16,4.79-4.81,4.78l-9.59-0.02
		c-2.65-0.01-4.79-2.16-4.78-4.81l0.02-9.59c0.01-2.65-2.13-4.8-4.78-4.81l-86.32-0.22c-2.65-0.01-4.8,2.13-4.81,4.78l-0.02,9.59
		c-0.01,2.65-2.16,4.79-4.81,4.78l-9.59-0.02c-2.65-0.01-4.79-2.16-4.78-4.81l0.02-9.59c0.01-2.65-2.13-4.8-4.78-4.81l-4.8-0.01
		c-5.3-0.01-9.6,4.27-9.62,9.57L11.1,175.47c-0.01,5.3,4.27,9.6,9.57,9.62l4.8,0.01c2.65,0.01,4.8-2.13,4.81-4.78l0.02-9.59
		c0.01-2.65,2.16-4.79,4.81-4.78l9.59,0.02c2.65,0.01,4.79,2.16,4.78,4.81l-0.02,9.59c-0.01,2.65,2.13,4.8,4.78,4.81l86.32,0.22
		c2.65,0.01,4.8-2.13,4.81-4.78l0.02-9.59c0.01-2.65,2.16-4.79,4.81-4.78l9.59,0.02c2.65,0.01,4.79,2.16,4.78,4.81l-0.02,9.59
		c-0.01,2.65,2.13,4.8,4.78,4.81l4.8,0.01c5.3,0.01,9.6-4.27,9.62-9.57l0.39-153.46c0.01-5.3-4.27-9.6-9.57-9.62l-4.8-0.01
		C167.12,12.82,164.97,14.96,164.96,17.61z M44.74,146.79l-9.59-0.02c-2.65-0.01-4.79-2.16-4.78-4.81l0.02-9.59
		c0.01-2.65,2.16-4.79,4.81-4.78l9.59,0.02c2.65,0.01,4.79,2.16,4.78,4.81L49.55,142C49.54,144.65,47.39,146.79,44.74,146.79z
		 M44.84,108.42l-9.59-0.02c-2.65-0.01-4.79-2.16-4.78-4.81L30.49,94c0.01-2.65,2.16-4.79,4.81-4.78l9.59,0.02
		c2.65,0.01,4.79,2.16,4.78,4.81l-0.02,9.59C49.64,106.28,47.49,108.43,44.84,108.42z M44.93,70.05l-9.59-0.02
		c-2.65-0.01-4.79-2.16-4.78-4.81l0.02-9.59c0.01-2.65,2.16-4.79,4.81-4.78l9.59,0.02c2.65,0.01,4.79,2.16,4.78,4.81l-0.02,9.59
		C49.74,67.92,47.58,70.06,44.93,70.05z M159.84,147.08l-9.59-0.02c-2.65-0.01-4.79-2.16-4.78-4.81l0.02-9.59
		c0.01-2.65,2.16-4.79,4.81-4.78l9.59,0.02c2.65,0.01,4.79,2.16,4.78,4.81l-0.02,9.59C164.64,144.94,162.49,147.08,159.84,147.08z
		 M159.93,108.71l-9.59-0.02c-2.65-0.01-4.79-2.16-4.78-4.81l0.02-9.59c0.01-2.65,2.16-4.79,4.81-4.78l9.59,0.02
		c2.65,0.01,4.79,2.16,4.78,4.81l-0.02,9.59C164.73,106.58,162.58,108.72,159.93,108.71z M160.03,70.35l-9.59-0.02
		c-2.65-0.01-4.79-2.16-4.78-4.81l0.02-9.59c0.01-2.65,2.16-4.79,4.81-4.78l9.59,0.02c2.65,0.01,4.79,2.16,4.78,4.81l-0.02,9.59
		C164.83,68.21,162.68,70.35,160.03,70.35z"/>
</g>
</svg>
