<svg xmlns="http://www.w3.org/2000/svg" width="200" height="200" viewBox="0 0 200 200"><title>music</title><path d="M100.95,15.68a87.27,87.27,0,1,0,88.78,85.74A87.28,87.28,0,0,0,100.95,15.68Zm26.71,66-16.36.28L112.09,127a19.2,19.2,0,1,1-38.4.66C73.5,117,81.23,108.14,92,108c3.54-.06,3.46,1,8.95,2.51l-0.78-44.71,27.27-.47Z" fill="#fff" stroke="#000" stroke-miterlimit="10" stroke-width="0.7"/><path d="M95.72,10.48a87.27,87.27,0,1,0,88.76,85.74A87.24,87.24,0,0,0,95.72,10.48Zm26.71,66-16.36.28,0.79,45.07a19.2,19.2,0,1,1-38.39.66c-0.19-10.71,7.54-19.53,18.25-19.71,3.54-.06,3.46,1,8.94,2.51L94.88,60.56l27.26-.47Z" fill="#ac287d" opacity="0.6" style="isolation:isolate"/></svg>