<?xml version="1.0" encoding="utf-8"?>
<!-- Generator: Adobe Illustrator 19.1.0, SVG Export Plug-In . SVG Version: 6.00 Build 0)  -->
<svg version="1.1" id="Layer_1" xmlns="http://www.w3.org/2000/svg" xmlns:xlink="http://www.w3.org/1999/xlink" x="0px" y="0px"
	 width="316px" height="172.96px" viewBox="0 0 316 172.96" enable-background="new 0 0 316 172.96" xml:space="preserve">
<g>
	<g>
		<path d="M237.36,46.58L217.97,83.4L20.39,64.96L237.36,46.58 M239.1,45.43L9.11,64.91l209.42,19.54L239.1,45.43L239.1,45.43z"/>
	</g>
	<g>
		<path d="M16.83,66.59l269.11,23.37l-129.61,26.05L16.83,66.59 M9.11,64.91l147.15,52.13l136.72-27.48L9.11,64.91L9.11,64.91z"/>
	</g>
	<g>
		<path d="M34.86,73.94l121.19,42.34l0.26,0.09l0.27-0.05l92.72-18.27l-57.8,44.46L34.86,73.94 M13.81,65.54
			c-0.13,0-0.19,0.2-0.05,0.26l177.87,77.87l61.64-47.42l-96.9,19.09L13.86,65.55C13.85,65.54,13.83,65.54,13.81,65.54L13.81,65.54z
			"/>
	</g>
	<g opacity="0.65">
		<path fill="#FFC715" d="M12.35,70.74l177.87,77.87l61.64-47.42l-96.9,19.09L12.45,70.49C12.29,70.43,12.19,70.67,12.35,70.74z"/>
	</g>
	<g opacity="0.68">
		<polygon fill="#FFC715" points="9.11,61.62 239.1,42.13 218.54,81.17 		"/>
	</g>
	<g opacity="0.5">
		<polygon fill="#FFC715" points="22.28,71.5 306.15,96.15 169.43,123.63 		"/>
	</g>
</g>
</svg>
